<svg xmlns="http://www.w3.org/2000/svg" viewBox="0 9.550000190734863 263.8699951171875 30.049999237060547" data-asc="0.78125"><g fill="#000000"><g fill="#000000" transform="translate(0, 0)"><path d="M22.49 10.08Q23.32 10.08 23.67 10.46Q24.02 10.84 24.02 11.74L24.02 20.95Q24.02 21.80 23.61 22.17Q23.19 22.53 22.19 22.53Q21.19 22.53 20.78 22.17Q20.36 21.80 20.36 20.95L20.36 13.40L13.84 13.40L13.84 35.74L19.60 35.74Q20.43 35.74 20.79 36.12Q21.14 36.50 21.14 37.40Q21.14 38.31 20.79 38.68Q20.43 39.06 19.60 39.06L4.42 39.06Q3.59 39.06 3.23 38.68Q2.88 38.31 2.88 37.40Q2.88 36.50 3.23 36.12Q3.59 35.74 4.42 35.74L10.18 35.74L10.18 13.40L3.66 13.40L3.66 20.95Q3.66 21.80 3.25 22.17Q2.83 22.53 1.83 22.53Q0.83 22.53 0.42 22.17Q0 21.80 0 20.95L0 11.74Q0 10.84 0.35 10.46Q0.71 10.08 1.54 10.08L22.49 10.08ZM52.03 28.56Q53.03 28.56 53.44 28.93Q53.86 29.30 53.86 30.15L53.86 37.40Q53.86 38.31 53.50 38.68Q53.15 39.06 52.32 39.06L30.49 39.06Q29.66 39.06 29.31 38.68Q28.96 38.31 28.96 37.40Q28.96 36.50 29.31 36.12Q29.66 35.74 30.49 35.74L32.98 35.74L32.98 13.40L30.49 13.40Q29.66 13.40 29.31 13.02Q28.96 12.65 28.96 11.74Q28.96 10.84 29.31 10.46Q29.66 10.08 30.49 10.08L51.83 10.08Q52.66 10.08 53.02 10.46Q53.37 10.84 53.37 11.74L53.37 17.94Q53.37 18.80 52.95 19.17Q52.54 19.53 51.54 19.53Q50.54 19.53 50.12 19.17Q49.71 18.80 49.71 17.94L49.71 13.40L36.65 13.40L36.65 22.46L42.94 22.46L42.94 20.24Q42.94 19.38 43.32 19.02Q43.70 18.65 44.68 18.65Q45.65 18.65 46.03 19.02Q46.41 19.38 46.41 20.24L46.41 28.00Q46.41 28.86 46.03 29.22Q45.65 29.59 44.68 29.59Q43.70 29.59 43.32 29.22Q42.94 28.86 42.94 28.00L42.94 25.78L36.65 25.78L36.65 35.74L50.20 35.74L50.20 30.15Q50.20 29.30 50.61 28.93Q51.03 28.56 52.03 28.56ZM81.37 9.55Q82.37 9.55 82.79 9.91Q83.20 10.28 83.20 11.13L83.20 19.19Q83.20 20.04 82.79 20.41Q82.37 20.78 81.37 20.78Q80.37 20.78 79.96 20.41Q79.54 20.04 79.54 19.19Q79.54 17.53 78.80 16.16Q78.05 14.79 76.51 13.98Q74.98 13.16 72.71 13.16Q70.07 13.16 68.03 14.55Q65.99 15.94 64.86 18.53Q63.72 21.12 63.72 24.58Q63.72 28.05 64.79 30.63Q65.87 33.20 67.85 34.59Q69.82 35.99 72.46 35.99Q74.88 35.99 77.08 35.28Q79.27 34.57 81.03 33.23Q81.45 32.89 81.93 32.89Q82.67 32.89 83.23 33.84Q83.67 34.57 83.67 35.13Q83.67 35.86 82.91 36.40Q80.64 37.99 77.97 38.79Q75.29 39.60 72.46 39.60Q68.65 39.60 65.81 37.73Q62.96 35.86 61.41 32.47Q59.86 29.08 59.86 24.58Q59.86 20.12 61.45 16.71Q63.04 13.31 65.91 11.43Q68.77 9.55 72.46 9.55Q74.76 9.55 76.54 10.33Q78.32 11.11 79.54 12.55L79.54 11.13Q79.54 10.28 79.96 9.91Q80.37 9.55 81.37 9.55ZM113.45 10.08Q114.28 10.08 114.64 10.46Q114.99 10.84 114.99 11.74Q114.99 12.65 114.64 13.02Q114.28 13.40 113.45 13.40L111.69 13.40L111.69 35.74L113.45 35.74Q114.28 35.74 114.64 36.12Q114.99 36.50 114.99 37.40Q114.99 38.31 114.64 38.68Q114.28 39.06 113.45 39.06L105.79 39.06Q104.96 39.06 104.60 38.68Q104.25 38.31 104.25 37.40Q104.25 36.50 104.60 36.12Q104.96 35.74 105.79 35.74L108.03 35.74L108.03 25.78L95.87 25.78L95.87 35.74L98.12 35.74Q98.95 35.74 99.30 36.12Q99.66 36.50 99.66 37.40Q99.66 38.31 99.30 38.68Q98.95 39.06 98.12 39.06L90.45 39.06Q89.62 39.06 89.27 38.68Q88.92 38.31 88.92 37.40Q88.92 36.50 89.27 36.12Q89.62 35.74 90.45 35.74L92.21 35.74L92.21 13.40L90.45 13.40Q89.62 13.40 89.27 13.02Q88.92 12.65 88.92 11.74Q88.92 10.84 89.27 10.46Q89.62 10.08 90.45 10.08L98.12 10.08Q98.95 10.08 99.30 10.46Q99.66 10.84 99.66 11.74Q99.66 12.65 99.30 13.02Q98.95 13.40 98.12 13.40L95.87 13.40L95.87 22.46L108.03 22.46L108.03 13.40L105.79 13.40Q104.96 13.40 104.60 13.02Q104.25 12.65 104.25 11.74Q104.25 10.84 104.60 10.46Q104.96 10.08 105.79 10.08L113.45 10.08ZM131.93 23.83Q130.18 23.83 129.41 23.47Q128.64 23.12 128.64 22.29L128.64 17.80Q128.64 16.97 129.41 16.61Q130.18 16.26 131.93 16.26Q133.69 16.26 134.46 16.61Q135.23 16.97 135.23 17.80L135.23 22.29Q135.23 23.12 134.46 23.47Q133.69 23.83 131.93 23.83M131.93 39.31Q130.18 39.31 129.41 38.95Q128.64 38.60 128.64 37.77L128.64 33.28Q128.64 32.45 129.41 32.09Q130.18 31.74 131.93 31.74Q133.69 31.74 134.46 32.09Q135.23 32.45 135.23 33.28L135.23 37.77Q135.23 38.60 134.46 38.95Q133.69 39.31 131.93 39.31ZM163.77 10.08Q167.02 10.08 169.34 11.23Q171.66 12.38 172.86 14.48Q174.07 16.58 174.07 19.34Q174.07 22.09 172.86 24.16Q171.66 26.22 169.34 27.36Q167.02 28.49 163.77 28.49L158.03 28.49L158.03 35.74L163.89 35.74Q164.72 35.74 165.08 36.12Q165.43 36.50 165.43 37.40Q165.43 38.31 165.08 38.68Q164.72 39.06 163.89 39.06L150.42 39.06Q149.58 39.06 149.23 38.68Q148.88 38.31 148.88 37.40Q148.88 36.50 149.23 36.12Q149.58 35.74 150.42 35.74L154.37 35.74L154.37 13.40L150.42 13.40Q149.58 13.40 149.23 13.02Q148.88 12.65 148.88 11.74Q148.88 10.84 149.23 10.46Q149.58 10.08 150.42 10.08L163.77 10.08M158.03 25.17L163.26 25.17Q166.65 25.17 168.43 23.63Q170.21 22.09 170.21 19.34Q170.21 16.53 168.42 14.97Q166.63 13.40 163.26 13.40L158.03 13.40L158.03 25.17ZM193.92 10.08Q194.75 10.08 195.10 10.46Q195.46 10.84 195.46 11.74Q195.46 12.65 195.10 13.02Q194.75 13.40 193.92 13.40L188.01 13.40L188.01 35.74L200.10 35.74L200.10 27.71Q200.10 26.86 200.51 26.49Q200.93 26.12 201.93 26.12Q202.93 26.12 203.34 26.49Q203.76 26.86 203.76 27.71L203.76 37.40Q203.76 38.31 203.41 38.68Q203.05 39.06 202.22 39.06L180.40 39.06Q179.57 39.06 179.21 38.68Q178.86 38.31 178.86 37.40Q178.86 36.50 179.21 36.12Q179.57 35.74 180.40 35.74L184.35 35.74L184.35 13.40L180.40 13.40Q179.57 13.40 179.21 13.02Q178.86 12.65 178.86 11.74Q178.86 10.84 179.21 10.46Q179.57 10.08 180.40 10.08L193.92 10.08ZM221.88 9.55Q225.68 9.55 228.60 11.43Q231.52 13.31 233.12 16.71Q234.72 20.12 234.72 24.58Q234.72 29.05 233.12 32.46Q231.52 35.86 228.60 37.73Q225.68 39.60 221.88 39.60Q218.07 39.60 215.15 37.73Q212.23 35.86 210.63 32.46Q209.03 29.05 209.03 24.58Q209.03 20.12 210.63 16.71Q212.23 13.31 215.15 11.43Q218.07 9.55 221.88 9.55M221.88 13.16Q219.19 13.16 217.15 14.55Q215.11 15.94 214.00 18.53Q212.89 21.12 212.89 24.58Q212.89 28.05 214.00 30.63Q215.11 33.20 217.15 34.59Q219.19 35.99 221.88 35.99Q224.56 35.99 226.60 34.59Q228.64 33.20 229.75 30.63Q230.86 28.05 230.86 24.58Q230.86 21.12 229.75 18.53Q228.64 15.94 226.60 14.55Q224.56 13.16 221.88 13.16ZM262.33 10.08Q263.16 10.08 263.51 10.46Q263.87 10.84 263.87 11.74L263.87 20.95Q263.87 21.80 263.45 22.17Q263.04 22.53 262.04 22.53Q261.04 22.53 260.62 22.17Q260.21 21.80 260.21 20.95L260.21 13.40L253.69 13.40L253.69 35.74L259.45 35.74Q260.28 35.74 260.63 36.12Q260.99 36.50 260.99 37.40Q260.99 38.31 260.63 38.68Q260.28 39.06 259.45 39.06L244.26 39.06Q243.43 39.06 243.08 38.68Q242.72 38.31 242.72 37.40Q242.72 36.50 243.08 36.12Q243.43 35.74 244.26 35.74L250.02 35.74L250.02 13.40L243.51 13.40L243.51 20.95Q243.51 21.80 243.09 22.17Q242.68 22.53 241.67 22.53Q240.67 22.53 240.26 22.17Q239.84 21.80 239.84 20.95L239.84 11.74Q239.84 10.84 240.20 10.46Q240.55 10.08 241.38 10.08L262.33 10.08Z"/></g><g fill="#000000" transform="translate(0, 67.08984375)"><path d=""/></g></g></svg>